<?xml version="1.0" encoding="UTF-8" standalone="no"?>
<svg
   id="svg8"
   version="1.1"
   viewBox="0 0 456 456"
   height="456"
   width="456"
   sodipodi:docname="appiconfg.svg"
   inkscape:version="1.3.2 (091e20e, 2023-11-25, custom)"
   xmlns:inkscape="http://www.inkscape.org/namespaces/inkscape"
   xmlns:sodipodi="http://sodipodi.sourceforge.net/DTD/sodipodi-0.dtd"
   xmlns="http://www.w3.org/2000/svg"
   xmlns:svg="http://www.w3.org/2000/svg"
   xmlns:rdf="http://www.w3.org/1999/02/22-rdf-syntax-ns#"
   xmlns:cc="http://creativecommons.org/ns#"
   xmlns:dc="http://purl.org/dc/elements/1.1/">
  <sodipodi:namedview
     id="namedview1"
     pagecolor="#505050"
     bordercolor="#eeeeee"
     borderopacity="1"
     inkscape:showpageshadow="0"
     inkscape:pageopacity="0"
     inkscape:pagecheckerboard="0"
     inkscape:deskcolor="#d1d1d1"
     showgrid="false"
     inkscape:zoom="2.3114035"
     inkscape:cx="227.56736"
     inkscape:cy="227.78368"
     inkscape:window-width="2560"
     inkscape:window-height="1411"
     inkscape:window-x="-9"
     inkscape:window-y="-9"
     inkscape:window-maximized="1"
     inkscape:current-layer="svg8" />
  <title
     id="title13">CornellPad Foreground App Icon Logo</title>
  <defs
     id="defs2" />
  <metadata
     id="metadata5">
    <rdf:RDF>
      <cc:Work
         rdf:about="">
        <dc:format>image/svg+xml</dc:format>
        <dc:type
           rdf:resource="http://purl.org/dc/dcmitype/StillImage" />
        <dc:title>CornellPad Foreground App Icon Logo</dc:title>
      </cc:Work>
    </rdf:RDF>
  </metadata>
  <g
     id="g4"
     transform="matrix(2.2734539,0,0,2.2734539,97.776091,95.017078)"
     style="fill:#666666">
    <path
       d="M 49.607829,0.00175751 C 19.432206,0.00174792 -7.8719633e-6,25.799451 3.9391411e-7,57.622319 -3.7390246e-6,89.445183 19.432206,115.24289 49.607829,115.24288 c 13.97442,0 25.555721,-5.47877 33.90789,-14.58032 C 76.83167,94.114401 74.852062,92.108004 68.543007,85.313971 63.197365,91.26683 55.241177,92.459478 49.607829,92.175509 31.512501,92.175466 21.873384,76.705439 21.873339,57.622319 21.87338,38.539195 31.512501,23.069172 49.607829,23.069127 57.820656,22.583094 68.06183,26.76471 70.952354,35.941491 76.955939,30.988251 84.276518,28.135912 91.891726,27.78283 84.562443,8.8947606 68.132412,-0.14497741 49.607829,0.00175751 Z"
       style="display:inline;fill:#666666;stroke-width:0.0767945;stroke-linecap:square;stroke-linejoin:bevel;stroke-dashoffset:99.9999;paint-order:stroke fill markers"
       id="path3" />
    <path
       id="path4"
       style="display:inline;fill:#666666;stroke-width:0.0888966;stroke-linecap:square;stroke-linejoin:bevel;stroke-dashoffset:99.9999;paint-order:stroke fill markers"
       d="M 92.674054,32.067237 A 28.311022,29.856478 0 0 0 72.558228,40.561496 28.311022,29.856478 0 0 0 64.064968,61.1594 L 57.72733,54.261821 c -0.346828,-0.377472 -0.943256,-0.357048 -1.337411,0.04573 l -4.690972,4.793436 c -0.394154,0.40277 -0.432256,1.030915 -0.08543,1.408387 l 24.272646,26.417504 c 0.04871,0.05301 0.103092,0.09621 0.160395,0.133564 L 106.8796,120.35592 c 0.35734,0.38588 0.93969,0.39283 1.30559,0.016 l 4.75761,-4.89997 c 0.36589,-0.37685 0.37294,-0.99098 0.0156,-1.37686 L 92.222341,91.702969 a 28.311022,29.856478 0 0 0 19.897339,-8.421058 28.311022,29.856478 0 0 0 0.47371,-42.220393 28.311022,29.856478 0 0 0 -19.919336,-8.994281 z m -0.10038,8.942026 a 19.831393,20.913958 0 0 1 13.953106,6.300026 19.831393,20.913958 0 0 1 -0.3319,29.574842 19.831393,20.913958 0 0 1 -27.828038,-0.159017 l -0.406434,-0.442358 a 19.831393,20.913958 0 0 1 0.522619,-29.32348 19.831393,20.913958 0 0 1 14.090647,-5.950013 z" />
  </g>
  <g
     id="g1"
     transform="matrix(2.2734539,0,0,2.2734539,90.85389,90.85389)">
    <path
       d="M 49.607829,0.00175751 C 19.432206,0.00174792 -7.8719633e-6,25.799451 3.9391411e-7,57.622319 -3.7390246e-6,89.445183 19.432206,115.24289 49.607829,115.24288 c 13.97442,0 25.555721,-5.47877 33.90789,-14.58032 C 76.83167,94.114401 74.852062,92.108004 68.543007,85.313971 63.197365,91.26683 55.241177,92.459478 49.607829,92.175509 31.512501,92.175466 21.873384,76.705439 21.873339,57.622319 21.87338,38.539195 31.512501,23.069172 49.607829,23.069127 57.820656,22.583094 68.06183,26.76471 70.952354,35.941491 76.955939,30.988251 84.276518,28.135912 91.891726,27.78283 84.562443,8.8947606 68.132412,-0.14497741 49.607829,0.00175751 Z"
       style="display:inline;fill:#ffffff;stroke-width:0.0767945;stroke-linecap:square;stroke-linejoin:bevel;stroke-dashoffset:99.9999;paint-order:stroke fill markers"
       id="path1" />
    <path
       id="path2"
       style="display:inline;fill:#ffffff;stroke-width:0.0888966;stroke-linecap:square;stroke-linejoin:bevel;stroke-dashoffset:99.9999;paint-order:stroke fill markers"
       d="M 92.674054,32.067237 A 28.311022,29.856478 0 0 0 72.558228,40.561496 28.311022,29.856478 0 0 0 64.064968,61.1594 L 57.72733,54.261821 c -0.346828,-0.377472 -0.943256,-0.357048 -1.337411,0.04573 l -4.690972,4.793436 c -0.394154,0.40277 -0.432256,1.030915 -0.08543,1.408387 l 24.272646,26.417504 c 0.04871,0.05301 0.103092,0.09621 0.160395,0.133564 L 106.8796,120.35592 c 0.35734,0.38588 0.93969,0.39283 1.30559,0.016 l 4.75761,-4.89997 c 0.36589,-0.37685 0.37294,-0.99098 0.0156,-1.37686 L 92.222341,91.702969 a 28.311022,29.856478 0 0 0 19.897339,-8.421058 28.311022,29.856478 0 0 0 0.47371,-42.220393 28.311022,29.856478 0 0 0 -19.919336,-8.994281 z m -0.10038,8.942026 a 19.831393,20.913958 0 0 1 13.953106,6.300026 19.831393,20.913958 0 0 1 -0.3319,29.574842 19.831393,20.913958 0 0 1 -27.828038,-0.159017 l -0.406434,-0.442358 a 19.831393,20.913958 0 0 1 0.522619,-29.32348 19.831393,20.913958 0 0 1 14.090647,-5.950013 z" />
  </g>
</svg>
