<?xml version="1.0" encoding="UTF-8" standalone="no"?>
<svg
   width="569.39575pt"
   height="560.44336pt"
   version="1.1"
   viewBox="0 0 569.39575 560.44336"
   id="svg51"
   sodipodi:docname="home.svg"
   inkscape:version="1.3 (0e150ed6c4, 2023-07-21)"
   xmlns:inkscape="http://www.inkscape.org/namespaces/inkscape"
   xmlns:sodipodi="http://sodipodi.sourceforge.net/DTD/sodipodi-0.dtd"
   xmlns="http://www.w3.org/2000/svg"
   xmlns:svg="http://www.w3.org/2000/svg">
  <sodipodi:namedview
     id="namedview51"
     pagecolor="#505050"
     bordercolor="#eeeeee"
     borderopacity="1"
     inkscape:showpageshadow="0"
     inkscape:pageopacity="0"
     inkscape:pagecheckerboard="0"
     inkscape:deskcolor="#d1d1d1"
     inkscape:document-units="pt"
     inkscape:zoom="1.3017857"
     inkscape:cx="379.86283"
     inkscape:cy="399.8354"
     inkscape:window-width="2560"
     inkscape:window-height="1411"
     inkscape:window-x="-9"
     inkscape:window-y="-9"
     inkscape:window-maximized="1"
     inkscape:current-layer="svg51" />
  <defs
     id="defs19">
    <symbol
       id="s"
       overflow="visible">
      <path
         d="M 5.9531,-0.35938 C 5.64841,-0.20313 5.33201,-0.08204 4.99998,0 4.66404,0.082031 4.31639,0.125 3.95308,0.125 c -1.0859,0 -1.9453,-0.30078 -2.5781,-0.90625 -0.625,-0.60156 -0.9375,-1.4219 -0.9375,-2.4531 0,-1.0312 0.3125,-1.8477 0.9375,-2.4531 0.63281,-0.60156 1.4922,-0.90625 2.5781,-0.90625 0.36328,0 0.71094,0.042969 1.0469,0.125 0.33203,0.074219 0.64844,0.19531 0.95312,0.35938 v 1.3281 C 5.6406,-4.98825 5.33201,-5.1406 5.03122,-5.23434 4.73825,-5.3359 4.42575,-5.39059 4.09372,-5.39059 c -0.60547,0 -1.0781,0.19531 -1.4219,0.57812 -0.33594,0.38672 -0.5,0.91406 -0.5,1.5781 0,0.66797 0.16406,1.1953 0.5,1.5781 0.34375,0.38672 0.81641,0.57812 1.4219,0.57812 0.33203,0 0.64453,-0.046875 0.9375,-0.14062 C 5.332,-1.32033 5.6406,-1.48439 5.9531,-1.70315 Z"
         id="path1" />
    </symbol>
    <symbol
       id="b"
       overflow="visible">
      <path
         d="M 4.3594,-3.5312 C 4.22268,-3.601512 4.08596,-3.64839 3.95315,-3.67182 3.81643,-3.70307 3.67971,-3.718695 3.5469,-3.718695 c -0.39844,0 -0.70312,0.13281 -0.92188,0.39062 -0.21875,0.25 -0.32812,0.61719 -0.32812,1.0938 v 2.2344 H 0.75 v -4.8594 h 1.5469 v 0.79688 c 0.19531,-0.32031 0.42578,-0.55469 0.6875,-0.70312 0.25781,-0.14453 0.57031,-0.21875 0.9375,-0.21875 0.050781,0 0.10938,0.00781 0.17188,0.015625 0.0625,0 0.14844,0.011719 0.26562,0.03125 z"
         id="path2" />
    </symbol>
    <symbol
       id="a"
       overflow="visible">
      <path
         d="M 5.5938,-2.4375 V -2 h -3.625 c 0.03125,0.36719 0.16016,0.64062 0.39062,0.82812 0.22656,0.17969 0.54688,0.26562 0.95312,0.26562 0.32031,0 0.65625,-0.046875 1,-0.14062 C 4.65629,-1.14844 5.00785,-1.30079 5.37504,-1.5 v 1.2031 c -0.375,0.13672 -0.74609,0.24219 -1.1094,0.3125 -0.36719,0.070312 -0.73047,0.10938 -1.0938,0.10938 -0.88672,0 -1.5742,-0.22266 -2.0625,-0.67188 -0.49219,-0.44531 -0.73438,-1.0703 -0.73438,-1.875 0,-0.78906 0.23828,-1.4141 0.71875,-1.875 0.47656,-0.45703 1.1406,-0.6875 1.9844,-0.6875 0.75781,0 1.3672,0.23438 1.8281,0.70312 0.45703,0.46094 0.6875,1.0742 0.6875,1.8438 z M 4,-2.95312 C 4,-3.2539 3.910156,-3.49218 3.73438,-3.67187 3.56641,-3.85937 3.34376,-3.95312 3.0625,-3.95312 c -0.29297,0 -0.53906,0.089844 -0.73438,0.26562 -0.1875,0.16797 -0.30469,0.41406 -0.34375,0.73438 z"
         id="path3" />
    </symbol>
    <symbol
       id="f"
       overflow="visible">
      <path
         d="m 2.9219,-2.1875 c -0.32422,0 -0.57031,0.058594 -0.73438,0.17188 -0.15625,0.10547 -0.23438,0.26562 -0.23438,0.48438 0,0.19922 0.0625,0.35547 0.1875,0.46875 0.13281,0.10547 0.32031,0.15625 0.5625,0.15625 0.28906,0 0.53516,-0.10156 0.73438,-0.3125 C 3.63283,-1.42577 3.7344,-1.6914 3.7344,-2.01562 V -2.1875 Z m 2.375,-0.59375 V -5e-5 H 3.7344 V -0.7188 C 3.52346,-0.42583 3.28909,-0.21099 3.03128,-0.07818 2.76956,0.05463 2.45316,0.12494 2.07816,0.12494 c -0.5,0 -0.91406,-0.14453 -1.2344,-0.4375 -0.3125,-0.28906 -0.46875,-0.67188 -0.46875,-1.1406 0,-0.57031 0.19531,-0.98828 0.59375,-1.25 0.39453,-0.26953 1.0078,-0.40625 1.8438,-0.40625 h 0.92188 v -0.125 c 0,-0.25 -0.10156,-0.42969 -0.29688,-0.54688 -0.1875,-0.11328 -0.49219,-0.17188 -0.90625,-0.17188 -0.33594,0 -0.64844,0.039063 -0.9375,0.10938 -0.28125,0.0625 -0.54297,0.16406 -0.78125,0.29688 v -1.1875 c 0.33203,-0.082031 0.66406,-0.14453 1,-0.1875 0.33203,-0.039063 0.66406,-0.0625 1,-0.0625 0.875,0 1.5039,0.17969 1.8906,0.53125 0.39453,0.34375 0.59375,0.90234 0.59375,1.6719 z"
         id="path4" />
    </symbol>
    <symbol
       id="c"
       overflow="visible">
      <path
         d="m 2.4375,-6.25 v 1.3906 H 4.0469 V -3.75 H 2.4375 v 2.0625 c 0,0.23047 0.046875,0.38672 0.14062,0.46875 0.09375,0.074219 0.26953,0.10938 0.53125,0.10938 H 3.90625 V 3e-5 h -1.3281 c -0.61719,0 -1.0547,-0.125 -1.3125,-0.375 -0.25,-0.25781 -0.375,-0.69531 -0.375,-1.3125 v -2.0625 H 0.12503 v -1.1094 h 0.76562 v -1.3906 z"
         id="path5" />
    </symbol>
    <symbol
       id="e"
       overflow="visible">
      <path
         d="M 4.0469,-4.1562 V -6.75 H 5.625 V 0 H 4.0469 V -0.70312 C 3.83596,-0.42187 3.60159,-0.21093 3.34378,-0.07812 3.08206,0.05469 2.78519,0.125 2.45316,0.125 c -0.60547,0 -1.1016,-0.23438 -1.4844,-0.70312 -0.375,-0.47656 -0.5625,-1.0938 -0.5625,-1.8438 0,-0.75 0.1875,-1.3633 0.5625,-1.8438 0.38281,-0.47656 0.87891,-0.71875 1.4844,-0.71875 0.33203,0 0.62891,0.070313 0.89062,0.20312 0.25781,0.13672 0.49219,0.34375 0.70312,0.625 z M 3.0313,-1 c 0.33203,0 0.58203,-0.11719 0.75,-0.35938 0.17578,-0.25 0.26562,-0.60156 0.26562,-1.0625 0,-0.46875 -0.089844,-0.82031 -0.26562,-1.0625 -0.16797,-0.23828 -0.41797,-0.35938 -0.75,-0.35938 -0.33594,0 -0.58984,0.12109 -0.76562,0.35938 -0.16797,0.24219 -0.25,0.59375 -0.25,1.0625 0,0.46094 0.082031,0.8125 0.25,1.0625 C 2.44146,-1.11719 2.69537,-1 3.0313,-1 Z"
         id="path6" />
    </symbol>
    <symbol
       id="i"
       overflow="visible">
      <path
         d="m 3.3281,-1 c 0.33203,0 0.58594,-0.11719 0.76562,-0.35938 0.17578,-0.25 0.26562,-0.60156 0.26562,-1.0625 0,-0.46875 -0.089844,-0.82031 -0.26562,-1.0625 -0.17969,-0.23828 -0.43359,-0.35938 -0.76562,-0.35938 -0.33594,0 -0.58984,0.125 -0.76562,0.375 -0.17969,0.24219 -0.26562,0.58984 -0.26562,1.0469 0,0.46094 0.085937,0.8125 0.26562,1.0625 0.17578,0.24219 0.42969,0.35938 0.76562,0.35938 z M 2.2969,-4.1562 c 0.21875,-0.28125 0.45703,-0.48828 0.71875,-0.625 0.25781,-0.13281 0.55469,-0.20312 0.89062,-0.20312 0.60156,0 1.0977,0.24219 1.4844,0.71875 0.38281,0.48047 0.57812,1.0938 0.57812,1.8438 0,0.75 -0.19531,1.3672 -0.57812,1.8438 -0.38672,0.46875 -0.88281,0.70312 -1.4844,0.70312 -0.33594,0 -0.63281,-0.070312 -0.89062,-0.20312 -0.26172,-0.13281 -0.5,-0.34375 -0.71875,-0.625 V 1.5e-4 H 0.75 v -6.75 h 1.5469 z"
         id="path7" />
    </symbol>
    <symbol
       id="h"
       overflow="visible">
      <path
         d="m 0.10938,-4.8594 h 1.5469 l 1.3125,3.2969 1.1094,-3.2969 h 1.5625 L 3.59378,0.4531 C 3.38284,0.99216 3.14456,1.37498 2.87503,1.5937 2.60159,1.81245 2.23831,1.92182 1.78123,1.92182 H 0.89061 v -1.0156 h 0.48438 c 0.25781,0 0.44531,-0.046875 0.5625,-0.14062 0.125,-0.085937 0.22266,-0.23047 0.29688,-0.4375 L 2.281245,0.18748 Z"
         id="path8" />
    </symbol>
    <symbol
       id="g"
       overflow="visible">
      <path
         d="M 0.75,-4.8594 H 2.2969 V 0 H 0.75 Z m 0,-1.8906 h 1.5469 v 1.2656 H 0.75 Z"
         id="path9" />
    </symbol>
    <symbol
       id="r"
       overflow="visible">
      <path
         d="m 3.9531,-6.75 v 1.0156 H 3.09372 c -0.23047,0 -0.38672,0.042969 -0.46875,0.125 -0.085938,0.074219 -0.125,0.21094 -0.125,0.40625 v 0.34375 h 1.3281 V -3.75 H 2.49997 V 0 H 0.93747 V -3.75 H 0.17185 v -1.1094 h 0.76562 v -0.34375 c 0,-0.53125 0.14453,-0.92188 0.4375,-1.1719 0.30078,-0.25 0.75781,-0.375 1.375,-0.375 z"
         id="path10" />
    </symbol>
    <symbol
       id="d"
       overflow="visible">
      <path
         d="M 3.0625,-3.875 C 2.71875,-3.875 2.45312,-3.75 2.26562,-3.5 2.08593,-3.25 2,-2.89062 2,-2.4219 c 0,0.46094 0.085938,0.8125 0.26562,1.0625 0.1875,0.25 0.45312,0.375 0.79688,0.375 0.33203,0 0.58594,-0.125 0.76562,-0.375 0.1875,-0.25 0.28125,-0.60156 0.28125,-1.0625 0,-0.46875 -0.09375,-0.82812 -0.28125,-1.0781 C 3.64843,-3.75 3.39453,-3.875 3.0625,-3.875 Z m 0,-1.1094 c 0.83203,0 1.4844,0.23047 1.9531,0.6875 0.46875,0.44922 0.70312,1.0742 0.70312,1.875 0,0.79297 -0.23438,1.418 -0.70312,1.875 -0.46875,0.44922 -1.1211,0.67188 -1.9531,0.67188 -0.84375,0 -1.5078,-0.22266 -1.9844,-0.67188 -0.46875,-0.45703 -0.70312,-1.082 -0.70312,-1.875 0,-0.80078 0.23438,-1.4258 0.70312,-1.875 0.47656,-0.45703 1.1406,-0.6875 1.9844,-0.6875 z"
         id="path11" />
    </symbol>
    <symbol
       id="q"
       overflow="visible">
      <path
         d="m 5.25,-4.0469 c 0.19531,-0.30078 0.42969,-0.53125 0.70312,-0.6875 0.26953,-0.16406 0.56641,-0.25 0.89062,-0.25 0.5625,0 0.98828,0.17188 1.2812,0.51562 0.28906,0.34375 0.4375,0.85156 0.4375,1.5156 V -8e-5 h -1.5625 v -2.5312 -0.125 -0.17188 c 0,-0.34375 -0.054688,-0.59375 -0.15625,-0.75 -0.09375,-0.15625 -0.25781,-0.23438 -0.48438,-0.23438 -0.29297,0 -0.52344,0.125 -0.6875,0.375 -0.15625,0.24219 -0.23438,0.58984 -0.23438,1.0469 V -4e-5 h -1.5625 v -2.5312 c 0,-0.53906 -0.046875,-0.89062 -0.14062,-1.0469 -0.093745,-0.15628 -0.26172,-0.23438 -0.5,-0.23438 -0.30469,0 -0.53906,0.125 -0.70312,0.375 -0.15625,0.24219 -0.23438,0.58984 -0.23438,1.0469 V -2e-5 h -1.5625 v -4.8594 h 1.5625 v 0.70312 c 0.19531,-0.26953 0.41406,-0.47266 0.65625,-0.60938 0.25,-0.14453 0.52344,-0.21875 0.82812,-0.21875 0.33203,0 0.625,0.085937 0.875,0.25 0.25781,0.15625 0.45703,0.38672 0.59375,0.6875 z"
         id="path12" />
    </symbol>
    <symbol
       id="p"
       overflow="visible">
      <path
         d="M 5.6406,-2.9531 V 0 H 4.0781 v -2.25 c 0,-0.42578 -0.011719,-0.71875 -0.03125,-0.875 C 4.023413,-3.28906 3.992163,-3.41016 3.9531,-3.48438 3.8906,-3.58594 3.80466,-3.66407 3.7031,-3.71876 3.59763,-3.78126 3.47654,-3.81251 3.34372,-3.81251 c -0.32422,0 -0.57812,0.125 -0.76562,0.375 -0.1875,0.25 -0.28125,0.60156 -0.28125,1.0469 v 2.3906 h -1.5469 v -6.75 h 1.5469 v 2.5938 c 0.23828,-0.28125 0.48828,-0.48828 0.75,-0.625 0.25781,-0.13281 0.55078,-0.20312 0.875,-0.20312 0.5625,0 0.98828,0.17188 1.2812,0.51562 0.28906,0.34375 0.4375,0.85156 0.4375,1.5156 z"
         id="path13" />
    </symbol>
    <symbol
       id="o"
       overflow="visible">
      <path
         d="m 0.8125,-6.4844 h 1.875 l 2.3594,4.4531 V -6.4844 H 6.625 V 0 H 4.7656 L 2.4062,-4.4531 V 0 H 0.8124 Z"
         id="path14" />
    </symbol>
    <symbol
       id="n"
       overflow="visible">
      <path
         d="M 0.6875,-1.8906 V -4.8594 H 2.25 v 0.48438 1 0.78125 c 0,0.39844 0.00781,0.68359 0.03125,0.85938 0.019531,0.16797 0.054688,0.28906 0.10938,0.35938 0.0625,0.10547 0.14062,0.1875 0.23438,0.25 0.10156,0.054688 0.22266,0.078125 0.35938,0.078125 0.32031,0 0.57812,-0.125 0.76562,-0.375 0.1875,-0.25 0.28125,-0.59766 0.28125,-1.0469 v -2.3906 h 1.5469 v 4.8594 h -1.5469 v -0.70312 c -0.24219,0.28125 -0.49219,0.49219 -0.75,0.625 -0.26172,0.13281 -0.54688,0.20312 -0.85938,0.20312 -0.5625,0 -0.99609,-0.17188 -1.2969,-0.51562 -0.29297,-0.34375 -0.4375,-0.84375 -0.4375,-1.5 z"
         id="path15" />
    </symbol>
    <symbol
       id="m"
       overflow="visible">
      <path
         d="M 5.6406,-2.9531 V 0 H 4.0781 v -2.2656 c 0,-0.41406 -0.011719,-0.70312 -0.03125,-0.85938 C 4.023413,-3.28904 3.992163,-3.41014 3.9531,-3.48436 3.8906,-3.58592 3.80466,-3.66405 3.7031,-3.71874 3.59763,-3.78124 3.47654,-3.81249 3.34372,-3.81249 c -0.32422,0 -0.57812,0.125 -0.76562,0.375 -0.1875,0.25 -0.28125,0.60156 -0.28125,1.0469 V 1e-5 h -1.5469 v -4.8594 h 1.5469 v 0.70312 c 0.23828,-0.28125 0.48828,-0.48828 0.75,-0.625 0.25781,-0.13281 0.55078,-0.20312 0.875,-0.20312 0.5625,0 0.98828,0.17188 1.2812,0.51562 0.28906,0.34375 0.4375,0.85156 0.4375,1.5156 z"
         id="path16" />
    </symbol>
    <symbol
       id="l"
       overflow="visible">
      <path
         d="m 0.8125,-6.4844 h 2.7812 c 0.82031,0 1.4531,0.18359 1.8906,0.54688 0.44531,0.36719 0.67188,0.89062 0.67188,1.5781 0,0.67969 -0.22656,1.1992 -0.67188,1.5625 -0.4375,0.36719 -1.0703,0.54688 -1.8906,0.54688 H 2.4843 v 2.25 H 0.8124 Z m 1.6719,1.2188 v 1.8125 h 0.92188 c 0.32031,0 0.57031,-0.078125 0.75,-0.23438 0.17578,-0.16406 0.26562,-0.39062 0.26562,-0.67188 0,-0.28906 -0.089844,-0.51562 -0.26562,-0.67188 -0.17969,-0.15625 -0.42969,-0.23438 -0.75,-0.23438 z"
         id="path17" />
    </symbol>
    <symbol
       id="k"
       overflow="visible">
      <path
         d="m 0.75,-4.8594 h 1.5469 v 4.7656 c 0,0.65625 -0.15625,1.1562 -0.46875,1.5 C 1.51565,1.75 1.06253,1.92182 0.46875,1.92182 h -0.76562 v -1.0156 h 0.26562 c 0.30078,0 0.50391,-0.070312 0.60938,-0.20312 0.11328,-0.13672 0.17188,-0.40234 0.17188,-0.79688 z m 0,-1.8906 h 1.5469 v 1.2656 H 0.75 Z"
         id="path18" />
    </symbol>
    <symbol
       id="j"
       overflow="visible">
      <path
         d="m 4.6719,-4.7031 v 1.2656 C 4.46096,-3.58203 4.25002,-3.69141 4.03128,-3.76562 3.82034,-3.835933 3.60159,-3.875 3.37503,-3.875 c -0.4375,0 -0.77734,0.13281 -1.0156,0.39062 -0.24219,0.25 -0.35938,0.60547 -0.35938,1.0625 0,0.44922 0.11719,0.80469 0.35938,1.0625 0.23828,0.25 0.57812,0.375 1.0156,0.375 0.23828,0 0.46875,-0.035156 0.6875,-0.10938 0.21875,-0.070312 0.42188,-0.17969 0.60938,-0.32812 v 1.2812 c -0.24219,0.085938 -0.48438,0.14453 -0.73438,0.1875 -0.25,0.050781 -0.5,0.078125 -0.75,0.078125 -0.88672,0 -1.5781,-0.22266 -2.0781,-0.67188 -0.49219,-0.44531 -0.73438,-1.0703 -0.73438,-1.875 0,-0.80078 0.24219,-1.4258 0.73438,-1.875 0.5,-0.45703 1.1914,-0.6875 2.0781,-0.6875 0.25,0 0.5,0.027344 0.75,0.078125 0.25,0.042969 0.49219,0.10938 0.73438,0.20312 z"
         id="path19" />
    </symbol>
  </defs>
  <path
     id="path83"
     d="m 284.69809,0 c -8.44435,0 -16.88837,3.111503 -23.11084,9.333985 L 140.69662,130.22315 V 92.891598 H 48.2518 V 224.4419 L 9.1433998,261.77344 C -19.302515,291.99535 25.143313,336.44117 53.58822,306.21826 131.808,227.9985 204.69833,156.88795 284.69809,76.888188 L 515.80795,306.21826 c 28.44491,30.22291 72.88975,-14.22191 44.44482,-44.44482 l 0.007,0.0102 L 307.81039,9.333985 C 301.58741,3.111503 293.14244,0 284.69809,0 Z m -0.006,108.89502 -215.10938,213.32959 c -1.77739,3.55469 -5.33305,5.33159 -7.11035,7.10889 V 560.44336 H 506.92367 V 329.3335 h -0.0117 c -1.77738,-1.7774 -5.33159,-3.5542 -7.10888,-7.10889 z m -35.54883,257.77149 h 71.10791 c 10.66797,0 19.55566,8.88969 19.55566,21.33105 v 126.21973 c 0,10.66797 -8.89129,21.33252 -19.55566,21.33252 h -71.10791 c -10.66797,0 -19.55566,-10.66855 -19.55566,-21.33252 V 387.99756 c 0,-12.44496 8.89129,-21.33105 19.55566,-21.33105 z"
     style="fill:#f9f9f9" />
</svg>
